<?xml version="1.0" encoding="UTF-8"?>
<svg xmlns="http://www.w3.org/2000/svg" xmlns:xlink="http://www.w3.org/1999/xlink" width="43.37" height="67.039" viewBox="0 0 43.37 67.039">
<defs>
<clipPath id="clip-0">
<path clip-rule="nonzero" d="M 0 0.0078125 L 42.75 0.0078125 L 42.75 66.085938 L 0 66.085938 Z M 0 0.0078125 "/>
</clipPath>
<clipPath id="clip-1">
<path clip-rule="nonzero" d="M 17 50 L 42.75 50 L 42.75 60 L 17 60 Z M 17 50 "/>
</clipPath>
<clipPath id="clip-2">
<path clip-rule="nonzero" d="M 11 0.0078125 L 31 0.0078125 L 31 15 L 11 15 Z M 11 0.0078125 "/>
</clipPath>
</defs>
<g clip-path="url(#clip-0)">
<path fill-rule="nonzero" fill="rgb(89.99939%, 89.99939%, 89.99939%)" fill-opacity="1" d="M 0 66.085938 L 42.75 66.085938 L 42.75 0.0078125 L 0 0.0078125 Z M 0 66.085938 "/>
</g>
<path fill-rule="nonzero" fill="rgb(37.5%, 25%, 12.5%)" fill-opacity="1" d="M 16.765625 63.292969 C 16.765625 61.902344 13.886719 60.777344 10.339844 60.777344 C 6.789062 60.777344 3.910156 61.902344 3.910156 63.292969 C 3.910156 64.679688 6.789062 65.804688 10.339844 65.804688 C 13.886719 65.804688 16.765625 64.679688 16.765625 63.292969 Z M 16.765625 63.292969 "/>
<path fill-rule="nonzero" fill="rgb(37.5%, 25%, 12.5%)" fill-opacity="1" d="M 31.015625 63.292969 C 31.015625 61.902344 28.136719 60.777344 24.589844 60.777344 C 21.039062 60.777344 18.160156 61.902344 18.160156 63.292969 C 18.160156 64.679688 21.039062 65.804688 24.589844 65.804688 C 28.136719 65.804688 31.015625 64.679688 31.015625 63.292969 Z M 31.015625 63.292969 "/>
<path fill-rule="nonzero" fill="rgb(37.5%, 25%, 12.5%)" fill-opacity="1" d="M 27.101562 12.160156 C 27.101562 10.152344 25.976562 8.527344 24.589844 8.527344 C 23.199219 8.527344 22.074219 10.152344 22.074219 12.160156 C 22.074219 14.164062 23.199219 15.792969 24.589844 15.792969 C 25.976562 15.792969 27.101562 14.164062 27.101562 12.160156 Z M 27.101562 12.160156 "/>
<path fill-rule="nonzero" fill="rgb(37.5%, 25%, 12.5%)" fill-opacity="1" d="M 12.851562 12.160156 C 12.851562 10.152344 11.726562 8.527344 10.339844 8.527344 C 8.949219 8.527344 7.824219 10.152344 7.824219 12.160156 C 7.824219 14.164062 8.949219 15.792969 10.339844 15.792969 C 11.726562 15.792969 12.851562 14.164062 12.851562 12.160156 Z M 12.851562 12.160156 "/>
<g clip-path="url(#clip-1)">
<path fill-rule="nonzero" fill="rgb(37.5%, 25%, 12.5%)" fill-opacity="1" d="M 42.207031 50.707031 C 41.648438 58.253906 18.210938 62.726562 17.929688 57.136719 C 17.371094 53.78125 20.546875 56.59375 28.503906 55.460938 C 35.785156 54.421875 42.207031 49.308594 42.207031 50.707031 "/>
</g>
<path fill-rule="nonzero" fill="rgb(75%, 50%, 25%)" fill-opacity="1" d="M 34.089844 43.175781 C 34.089844 61.617188 27.382812 63.851562 17.464844 63.851562 C 7.542969 63.851562 0.839844 61.617188 0.839844 43.175781 C 0.558594 24.734375 8.101562 9.925781 17.464844 9.925781 C 26.824219 9.925781 34.367188 24.734375 34.089844 43.175781 Z M 34.089844 43.175781 "/>
<path fill-rule="nonzero" fill="rgb(87.5%, 75%, 62.5%)" fill-opacity="1" d="M 29.339844 49.042969 C 29.339844 57.425781 24.308594 58.542969 17.464844 58.542969 C 10.617188 58.542969 5.589844 57.425781 5.589844 49.042969 C 5.589844 40.660156 11.175781 33.675781 17.464844 33.675781 C 23.75 33.675781 29.339844 40.660156 29.339844 49.042969 Z M 29.339844 49.042969 "/>
<path fill-rule="nonzero" fill="rgb(37.5%, 25%, 12.5%)" fill-opacity="1" d="M 30.515625 36.59375 C 28.628906 35.90625 26.074219 38.171875 24.808594 41.652344 C 23.539062 45.132812 24.042969 48.511719 25.925781 49.195312 C 27.8125 49.882812 30.367188 47.617188 31.632812 44.136719 C 32.902344 40.65625 32.398438 37.28125 30.515625 36.59375 Z M 30.515625 36.59375 "/>
<path fill-rule="nonzero" fill="rgb(37.5%, 25%, 12.5%)" fill-opacity="1" d="M 9 49.195312 C 10.886719 48.511719 11.386719 45.132812 10.121094 41.652344 C 8.851562 38.171875 6.296875 35.90625 4.414062 36.59375 C 2.527344 37.28125 2.027344 40.65625 3.292969 44.136719 C 4.558594 47.617188 7.113281 49.882812 9 49.195312 Z M 9 49.195312 "/>
<path fill-rule="nonzero" fill="rgb(87.5%, 75%, 62.5%)" fill-opacity="1" d="M 23.890625 27.808594 C 23.890625 25.800781 21.011719 24.175781 17.464844 24.175781 C 13.914062 24.175781 11.035156 25.800781 11.035156 27.808594 C 11.035156 29.8125 13.914062 31.4375 17.464844 31.4375 C 21.011719 31.4375 23.890625 29.8125 23.890625 27.808594 Z M 23.890625 27.808594 "/>
<path fill-rule="nonzero" fill="rgb(37.5%, 25%, 12.5%)" fill-opacity="1" d="M 19.699219 24.175781 C 19.699219 22.941406 18.699219 21.9375 17.464844 21.9375 C 16.230469 21.9375 15.226562 22.941406 15.226562 24.175781 C 15.226562 25.410156 16.230469 26.410156 17.464844 26.410156 C 18.699219 26.410156 19.699219 25.410156 19.699219 24.175781 Z M 19.699219 24.175781 "/>
<path fill-rule="nonzero" fill="rgb(37.5%, 25%, 12.5%)" fill-opacity="1" d="M 14.53125 19.425781 C 14.53125 18.652344 13.902344 18.027344 13.132812 18.027344 C 12.359375 18.027344 11.734375 18.652344 11.734375 19.425781 C 11.734375 20.195312 12.359375 20.820312 13.132812 20.820312 C 13.902344 20.820312 14.53125 20.195312 14.53125 19.425781 Z M 14.53125 19.425781 "/>
<path fill-rule="nonzero" fill="rgb(37.5%, 25%, 12.5%)" fill-opacity="1" d="M 23.191406 19.425781 C 23.191406 18.652344 22.566406 18.027344 21.792969 18.027344 C 21.023438 18.027344 20.398438 18.652344 20.398438 19.425781 C 20.398438 20.195312 21.023438 20.820312 21.792969 20.820312 C 22.566406 20.820312 23.191406 20.195312 23.191406 19.425781 Z M 23.191406 19.425781 "/>
<path fill-rule="nonzero" fill="rgb(37.5%, 25%, 12.5%)" fill-opacity="1" d="M 21.515625 26.6875 C 20.671875 29.007812 18.105469 30.207031 15.785156 29.359375 C 14.542969 28.910156 13.566406 27.929688 13.113281 26.6875 L 13.550781 26.6875 C 14.3125 28.777344 16.621094 29.855469 18.707031 29.09375 C 19.824219 28.6875 20.707031 27.804688 21.113281 26.6875 Z M 21.515625 26.6875 "/>
<g clip-path="url(#clip-2)">
<path fill-rule="nonzero" fill="rgb(99.645996%, 90.704346%, 0.704956%)" fill-opacity="1" d="M 12.195312 11.277344 C 12.195312 11.277344 13.332031 8.070312 11.0625 0.00390625 L 16.472656 6.355469 L 20.652344 1.980469 L 23.078125 7.519531 L 30.5625 3.726562 C 24.941406 9.835938 25.6875 13.65625 25.6875 13.65625 C 21.722656 15.226562 15.386719 14.113281 12.195312 11.277344 Z M 12.195312 11.277344 "/>
</g>
</svg>
