<?xml version="1.0" encoding="UTF-8"?>
<svg xmlns="http://www.w3.org/2000/svg" xmlns:xlink="http://www.w3.org/1999/xlink" width="90.061" height="67.039" viewBox="0 0 90.061 67.039">
<defs>
<clipPath id="clip-0">
<path clip-rule="nonzero" d="M 0.171875 0 L 88.960938 0 L 88.960938 66.089844 L 0.171875 66.089844 Z M 0.171875 0 "/>
</clipPath>
<clipPath id="clip-1">
<path clip-rule="nonzero" d="M 64 50 L 88.960938 50 L 88.960938 60 L 64 60 Z M 64 50 "/>
</clipPath>
</defs>
<g clip-path="url(#clip-0)">
<path fill-rule="nonzero" fill="rgb(89.99939%, 89.99939%, 89.99939%)" fill-opacity="1" d="M 0.171875 66.089844 L 88.960938 66.089844 L 88.960938 0 L 0.171875 0 Z M 0.171875 66.089844 "/>
</g>
<path fill-rule="nonzero" fill="rgb(37.5%, 25%, 12.5%)" fill-opacity="1" d="M 16.941406 63.296875 C 16.941406 61.910156 14.0625 60.78125 10.515625 60.78125 C 6.964844 60.78125 4.085938 61.910156 4.085938 63.296875 C 4.085938 64.6875 6.964844 65.8125 10.515625 65.8125 C 14.0625 65.8125 16.941406 64.6875 16.941406 63.296875 Z M 16.941406 63.296875 "/>
<path fill-rule="nonzero" fill="rgb(37.5%, 25%, 12.5%)" fill-opacity="1" d="M 31.195312 63.296875 C 31.195312 61.910156 28.316406 60.78125 24.765625 60.78125 C 21.214844 60.78125 18.339844 61.910156 18.339844 63.296875 C 18.339844 64.6875 21.214844 65.8125 24.765625 65.8125 C 28.316406 65.8125 31.195312 64.6875 31.195312 63.296875 Z M 31.195312 63.296875 "/>
<path fill-rule="nonzero" fill="rgb(37.5%, 25%, 12.5%)" fill-opacity="1" d="M 27.28125 12.15625 C 27.28125 10.148438 26.15625 8.523438 24.765625 8.523438 C 23.378906 8.523438 22.25 10.148438 22.25 12.15625 C 22.25 14.164062 23.378906 15.789062 24.765625 15.789062 C 26.15625 15.789062 27.28125 14.164062 27.28125 12.15625 Z M 27.28125 12.15625 "/>
<path fill-rule="nonzero" fill="rgb(37.5%, 25%, 12.5%)" fill-opacity="1" d="M 13.027344 12.15625 C 13.027344 10.148438 11.902344 8.523438 10.515625 8.523438 C 9.125 8.523438 8 10.148438 8 12.15625 C 8 14.164062 9.125 15.789062 10.515625 15.789062 C 11.902344 15.789062 13.027344 14.164062 13.027344 12.15625 Z M 13.027344 12.15625 "/>
<path fill-rule="nonzero" fill="rgb(37.5%, 25%, 12.5%)" fill-opacity="1" d="M 42.390625 50.710938 C 41.832031 58.257812 18.386719 62.734375 18.105469 57.140625 C 17.546875 53.785156 20.726562 56.597656 28.679688 55.464844 C 35.964844 54.425781 42.390625 49.308594 42.390625 50.710938 "/>
<path fill-rule="nonzero" fill="rgb(75%, 50%, 25%)" fill-opacity="1" d="M 34.269531 43.175781 C 34.269531 61.621094 27.5625 63.855469 17.640625 63.855469 C 7.71875 63.855469 1.011719 61.621094 1.011719 43.175781 C 0.734375 24.730469 8.277344 9.921875 17.640625 9.921875 C 27.003906 9.921875 34.546875 24.730469 34.269531 43.175781 Z M 34.269531 43.175781 "/>
<path fill-rule="nonzero" fill="rgb(87.5%, 75%, 62.5%)" fill-opacity="1" d="M 29.515625 49.042969 C 29.515625 57.429688 24.488281 58.546875 17.640625 58.546875 C 10.792969 58.546875 5.761719 57.429688 5.761719 49.042969 C 5.761719 40.660156 11.351562 33.675781 17.640625 33.675781 C 23.929688 33.675781 29.515625 40.660156 29.515625 49.042969 Z M 29.515625 49.042969 "/>
<path fill-rule="nonzero" fill="rgb(37.5%, 25%, 12.5%)" fill-opacity="1" d="M 30.691406 36.59375 C 28.808594 35.90625 26.253906 38.171875 24.984375 41.652344 C 23.71875 45.136719 24.21875 48.511719 26.105469 49.199219 C 27.992188 49.886719 30.546875 47.621094 31.8125 44.140625 C 33.082031 40.660156 32.578125 37.28125 30.691406 36.59375 Z M 30.691406 36.59375 "/>
<path fill-rule="nonzero" fill="rgb(37.5%, 25%, 12.5%)" fill-opacity="1" d="M 9.175781 49.199219 C 11.0625 48.511719 11.5625 45.136719 10.296875 41.652344 C 9.027344 38.171875 6.472656 35.90625 4.585938 36.59375 C 2.703125 37.28125 2.199219 40.660156 3.46875 44.140625 C 4.734375 47.621094 7.289062 49.886719 9.175781 49.199219 Z M 9.175781 49.199219 "/>
<path fill-rule="nonzero" fill="rgb(87.5%, 75%, 62.5%)" fill-opacity="1" d="M 24.066406 27.804688 C 24.066406 25.800781 21.191406 24.171875 17.640625 24.171875 C 14.089844 24.171875 11.210938 25.800781 11.210938 27.804688 C 11.210938 29.8125 14.089844 31.4375 17.640625 31.4375 C 21.191406 31.4375 24.066406 29.8125 24.066406 27.804688 Z M 24.066406 27.804688 "/>
<path fill-rule="nonzero" fill="rgb(37.5%, 25%, 12.5%)" fill-opacity="1" d="M 19.875 24.171875 C 19.875 22.9375 18.875 21.9375 17.640625 21.9375 C 16.40625 21.9375 15.40625 22.9375 15.40625 24.171875 C 15.40625 25.40625 16.40625 26.40625 17.640625 26.40625 C 18.875 26.40625 19.875 25.40625 19.875 24.171875 Z M 19.875 24.171875 "/>
<path fill-rule="nonzero" fill="rgb(37.5%, 25%, 12.5%)" fill-opacity="1" d="M 14.707031 19.421875 C 14.707031 18.648438 14.082031 18.023438 13.308594 18.023438 C 12.535156 18.023438 11.910156 18.648438 11.910156 19.421875 C 11.910156 20.195312 12.535156 20.820312 13.308594 20.820312 C 14.082031 20.820312 14.707031 20.195312 14.707031 19.421875 Z M 14.707031 19.421875 "/>
<path fill-rule="nonzero" fill="rgb(37.5%, 25%, 12.5%)" fill-opacity="1" d="M 23.367188 19.421875 C 23.367188 18.648438 22.742188 18.023438 21.972656 18.023438 C 21.199219 18.023438 20.574219 18.648438 20.574219 19.421875 C 20.574219 20.195312 21.199219 20.820312 21.972656 20.820312 C 22.742188 20.820312 23.367188 20.195312 23.367188 19.421875 Z M 23.367188 19.421875 "/>
<path fill-rule="nonzero" fill="rgb(37.5%, 25%, 12.5%)" fill-opacity="1" d="M 21.691406 26.6875 C 20.847656 29.007812 18.28125 30.203125 15.960938 29.359375 C 14.71875 28.910156 13.742188 27.929688 13.289062 26.6875 L 13.726562 26.6875 C 14.488281 28.777344 16.796875 29.851562 18.886719 29.09375 C 20.003906 28.6875 20.882812 27.804688 21.289062 26.6875 Z M 21.691406 26.6875 "/>
<path fill-rule="nonzero" fill="rgb(50%, 50%, 50%)" fill-opacity="1" d="M 19.84375 23.765625 C 22.273438 23.335938 23.46875 25.179688 25.902344 25.609375 L 25.902344 25.328125 C 23.5 24.90625 22.246094 23.34375 19.84375 23.765625 Z M 19.84375 23.765625 "/>
<path fill-rule="nonzero" fill="rgb(50%, 50%, 50%)" fill-opacity="1" d="M 15.4375 23.765625 C 13.007812 23.335938 11.808594 25.179688 9.378906 25.609375 L 9.378906 25.328125 C 11.78125 24.90625 13.035156 23.34375 15.4375 23.765625 Z M 15.4375 23.765625 "/>
<path fill-rule="nonzero" fill="rgb(50%, 50%, 50%)" fill-opacity="1" d="M 19.742188 23.386719 C 22.0625 22.542969 23.707031 23.308594 26.03125 24.152344 L 26.03125 23.875 C 23.714844 23.03125 22.054688 22.546875 19.742188 23.386719 Z M 19.742188 23.386719 "/>
<path fill-rule="nonzero" fill="rgb(50%, 50%, 50%)" fill-opacity="1" d="M 15.539062 23.386719 C 13.214844 22.542969 11.574219 23.308594 9.25 24.152344 L 9.25 23.875 C 11.566406 23.03125 13.222656 22.546875 15.539062 23.386719 Z M 15.539062 23.386719 "/>
<path fill-rule="nonzero" fill="rgb(50%, 50%, 50%)" fill-opacity="1" d="M 19.515625 22.933594 C 21.59375 21.585938 23.738281 20.917969 25.8125 22.265625 L 25.8125 21.988281 C 23.730469 20.636719 21.601562 21.582031 19.515625 22.933594 Z M 19.515625 22.933594 "/>
<path fill-rule="nonzero" fill="rgb(50%, 50%, 50%)" fill-opacity="1" d="M 15.765625 22.933594 C 13.6875 21.585938 11.542969 20.917969 9.464844 22.265625 L 9.464844 21.988281 C 11.550781 20.636719 13.679688 21.582031 15.765625 22.933594 Z M 15.765625 22.933594 "/>
<path fill-rule="nonzero" fill="rgb(37.5%, 25%, 12.5%)" fill-opacity="1" d="M 18.980469 29.398438 L 18.980469 30.515625 L 16.296875 30.515625 L 16.296875 29.398438 Z M 18.980469 29.398438 "/>
<path fill-rule="nonzero" fill="rgb(100%, 100%, 100%)" fill-opacity="1" d="M 16.382812 29.566406 L 16.382812 30.433594 L 17.527344 30.433594 L 17.527344 29.566406 Z M 16.382812 29.566406 "/>
<path fill-rule="nonzero" fill="rgb(100%, 100%, 100%)" fill-opacity="1" d="M 18.898438 29.566406 L 18.898438 30.433594 L 17.75 30.433594 L 17.75 29.566406 Z M 18.898438 29.566406 "/>
<path fill-rule="nonzero" fill="rgb(37.5%, 25%, 12.5%)" fill-opacity="1" d="M 62.972656 63.296875 C 62.972656 61.910156 60.09375 60.78125 56.542969 60.78125 C 52.992188 60.78125 50.117188 61.910156 50.117188 63.296875 C 50.117188 64.6875 52.992188 65.8125 56.542969 65.8125 C 60.09375 65.8125 62.972656 64.6875 62.972656 63.296875 Z M 62.972656 63.296875 "/>
<path fill-rule="nonzero" fill="rgb(37.5%, 25%, 12.5%)" fill-opacity="1" d="M 77.222656 63.296875 C 77.222656 61.910156 74.347656 60.78125 70.796875 60.78125 C 67.246094 60.78125 64.371094 61.910156 64.371094 63.296875 C 64.371094 64.6875 67.246094 65.8125 70.796875 65.8125 C 74.347656 65.8125 77.222656 64.6875 77.222656 63.296875 Z M 77.222656 63.296875 "/>
<path fill-rule="nonzero" fill="rgb(37.5%, 25%, 12.5%)" fill-opacity="1" d="M 73.3125 12.15625 C 73.3125 10.148438 72.1875 8.523438 70.796875 8.523438 C 69.40625 8.523438 68.28125 10.148438 68.28125 12.15625 C 68.28125 14.164062 69.40625 15.789062 70.796875 15.789062 C 72.1875 15.789062 73.3125 14.164062 73.3125 12.15625 Z M 73.3125 12.15625 "/>
<path fill-rule="nonzero" fill="rgb(37.5%, 25%, 12.5%)" fill-opacity="1" d="M 59.058594 12.15625 C 59.058594 10.148438 57.933594 8.523438 56.542969 8.523438 C 55.15625 8.523438 54.027344 10.148438 54.027344 12.15625 C 54.027344 14.164062 55.15625 15.789062 56.542969 15.789062 C 57.933594 15.789062 59.058594 14.164062 59.058594 12.15625 Z M 59.058594 12.15625 "/>
<g clip-path="url(#clip-1)">
<path fill-rule="nonzero" fill="rgb(37.5%, 25%, 12.5%)" fill-opacity="1" d="M 88.417969 50.710938 C 87.859375 58.257812 64.417969 62.734375 64.136719 57.140625 C 63.578125 53.785156 66.753906 56.597656 74.710938 55.464844 C 81.996094 54.425781 88.417969 49.308594 88.417969 50.710938 "/>
</g>
<path fill-rule="nonzero" fill="rgb(75%, 50%, 25%)" fill-opacity="1" d="M 80.296875 43.175781 C 80.296875 61.621094 73.589844 63.855469 63.671875 63.855469 C 53.75 63.855469 47.042969 61.621094 47.042969 43.175781 C 46.761719 24.730469 54.308594 9.921875 63.671875 9.921875 C 73.03125 9.921875 80.578125 24.730469 80.296875 43.175781 Z M 80.296875 43.175781 "/>
<path fill-rule="nonzero" fill="rgb(87.5%, 75%, 62.5%)" fill-opacity="1" d="M 75.546875 49.042969 C 75.546875 57.429688 70.515625 58.546875 63.671875 58.546875 C 56.824219 58.546875 51.792969 57.429688 51.792969 49.042969 C 51.792969 40.660156 57.382812 33.675781 63.671875 33.675781 C 69.957031 33.675781 75.546875 40.660156 75.546875 49.042969 Z M 75.546875 49.042969 "/>
<path fill-rule="nonzero" fill="rgb(37.5%, 25%, 12.5%)" fill-opacity="1" d="M 76.722656 36.59375 C 74.839844 35.90625 72.28125 38.171875 71.015625 41.652344 C 69.75 45.136719 70.25 48.511719 72.136719 49.199219 C 74.019531 49.886719 76.578125 47.621094 77.84375 44.140625 C 79.109375 40.660156 78.609375 37.28125 76.722656 36.59375 Z M 76.722656 36.59375 "/>
<path fill-rule="nonzero" fill="rgb(37.5%, 25%, 12.5%)" fill-opacity="1" d="M 55.207031 49.199219 C 57.089844 48.511719 57.59375 45.136719 56.324219 41.652344 C 55.058594 38.171875 52.503906 35.90625 50.617188 36.59375 C 48.730469 37.28125 48.230469 40.660156 49.496094 44.140625 C 50.765625 47.621094 53.320312 49.886719 55.207031 49.199219 Z M 55.207031 49.199219 "/>
<path fill-rule="nonzero" fill="rgb(87.5%, 75%, 62.5%)" fill-opacity="1" d="M 70.097656 27.804688 C 70.097656 25.800781 67.21875 24.171875 63.671875 24.171875 C 60.121094 24.171875 57.242188 25.800781 57.242188 27.804688 C 57.242188 29.8125 60.121094 31.4375 63.671875 31.4375 C 67.21875 31.4375 70.097656 29.8125 70.097656 27.804688 Z M 70.097656 27.804688 "/>
<path fill-rule="nonzero" fill="rgb(37.5%, 25%, 12.5%)" fill-opacity="1" d="M 65.90625 24.171875 C 65.90625 22.9375 64.90625 21.9375 63.671875 21.9375 C 62.433594 21.9375 61.433594 22.9375 61.433594 24.171875 C 61.433594 25.40625 62.433594 26.40625 63.671875 26.40625 C 64.90625 26.40625 65.90625 25.40625 65.90625 24.171875 Z M 65.90625 24.171875 "/>
<path fill-rule="nonzero" fill="rgb(37.5%, 25%, 12.5%)" fill-opacity="1" d="M 60.734375 19.421875 C 60.734375 18.648438 60.109375 18.023438 59.339844 18.023438 C 58.566406 18.023438 57.941406 18.648438 57.941406 19.421875 C 57.941406 20.195312 58.566406 20.820312 59.339844 20.820312 C 60.109375 20.820312 60.734375 20.195312 60.734375 19.421875 Z M 60.734375 19.421875 "/>
<path fill-rule="nonzero" fill="rgb(37.5%, 25%, 12.5%)" fill-opacity="1" d="M 69.398438 19.421875 C 69.398438 18.648438 68.773438 18.023438 68 18.023438 C 67.230469 18.023438 66.605469 18.648438 66.605469 19.421875 C 66.605469 20.195312 67.230469 20.820312 68 20.820312 C 68.773438 20.820312 69.398438 20.195312 69.398438 19.421875 Z M 69.398438 19.421875 "/>
<path fill-rule="nonzero" fill="rgb(37.5%, 25%, 12.5%)" fill-opacity="1" d="M 67.722656 26.6875 C 66.878906 29.007812 64.3125 30.203125 61.992188 29.359375 C 60.75 28.910156 59.769531 27.929688 59.320312 26.6875 L 59.757812 26.6875 C 60.519531 28.777344 62.828125 29.851562 64.914062 29.09375 C 66.035156 28.6875 66.914062 27.804688 67.320312 26.6875 Z M 67.722656 26.6875 "/>
<path fill-rule="nonzero" fill="rgb(99.645996%, 90.704346%, 0.704956%)" fill-opacity="1" d="M 58.402344 11.273438 C 58.402344 11.273438 59.535156 8.066406 57.269531 0 L 62.679688 6.347656 L 66.859375 1.976562 L 69.289062 7.515625 L 76.769531 3.722656 C 71.152344 9.832031 71.898438 13.652344 71.898438 13.652344 C 67.929688 15.222656 61.59375 14.109375 58.402344 11.273438 Z M 58.402344 11.273438 "/>
<path fill-rule="nonzero" fill="rgb(75%, 0%, 25%)" fill-opacity="1" d="M 75.292969 54.914062 C 75.292969 51.828125 70.289062 49.324219 64.113281 49.324219 C 57.941406 49.324219 52.9375 51.828125 52.9375 54.914062 C 52.9375 58 57.941406 60.503906 64.113281 60.503906 C 70.289062 60.503906 75.292969 58 75.292969 54.914062 Z M 75.292969 54.914062 "/>
<path fill-rule="nonzero" fill="rgb(75%, 0%, 25%)" fill-opacity="1" d="M 52.9375 54.914062 L 52.9375 49.324219 L 75.292969 49.324219 L 75.292969 54.914062 Z M 52.9375 54.914062 "/>
<path fill-rule="nonzero" fill="rgb(75%, 0%, 25%)" fill-opacity="1" d="M 75.292969 49.324219 C 75.292969 46.238281 70.289062 43.734375 64.113281 43.734375 C 57.941406 43.734375 52.9375 46.238281 52.9375 49.324219 C 52.9375 52.410156 57.941406 54.914062 64.113281 54.914062 C 70.289062 54.914062 75.292969 52.410156 75.292969 49.324219 Z M 75.292969 49.324219 "/>
<path fill-rule="nonzero" fill="rgb(87.5%, 50%, 62.5%)" fill-opacity="1" d="M 57.128906 47.925781 L 57.128906 42.335938 L 58.527344 42.335938 L 58.527344 47.925781 Z M 57.128906 47.925781 "/>
<path fill-rule="nonzero" fill="rgb(87.5%, 50%, 62.5%)" fill-opacity="1" d="M 69.703125 47.925781 L 69.703125 42.335938 L 71.101562 42.335938 L 71.101562 47.925781 Z M 69.703125 47.925781 "/>
<path fill-rule="nonzero" fill="rgb(87.5%, 50%, 62.5%)" fill-opacity="1" d="M 63.417969 50.722656 L 63.417969 45.132812 L 64.8125 45.132812 L 64.8125 50.722656 Z M 63.417969 50.722656 "/>
<path fill-rule="nonzero" fill="rgb(100%, 99.234009%, 85.00061%)" fill-opacity="1" d="M 64.953125 42.898438 C 64.953125 41.972656 64.578125 41.21875 64.113281 41.21875 C 63.652344 41.21875 63.277344 41.972656 63.277344 42.898438 C 63.277344 43.824219 63.652344 44.574219 64.113281 44.574219 C 64.578125 44.574219 64.953125 43.824219 64.953125 42.898438 Z M 64.953125 42.898438 "/>
<path fill-rule="nonzero" fill="rgb(100%, 99.234009%, 85.00061%)" fill-opacity="1" d="M 71.242188 40.101562 C 71.242188 39.175781 70.867188 38.425781 70.402344 38.425781 C 69.941406 38.425781 69.566406 39.175781 69.566406 40.101562 C 69.566406 41.027344 69.941406 41.777344 70.402344 41.777344 C 70.867188 41.777344 71.242188 41.027344 71.242188 40.101562 Z M 71.242188 40.101562 "/>
<path fill-rule="nonzero" fill="rgb(100%, 99.234009%, 85.00061%)" fill-opacity="1" d="M 58.664062 40.101562 C 58.664062 39.175781 58.289062 38.425781 57.828125 38.425781 C 57.363281 38.425781 56.988281 39.175781 56.988281 40.101562 C 56.988281 41.027344 57.363281 41.777344 57.828125 41.777344 C 58.289062 41.777344 58.664062 41.027344 58.664062 40.101562 Z M 58.664062 40.101562 "/>
</svg>
